<?xml version="1.0" standalone="no"?>
<!DOCTYPE svg PUBLIC "-//W3C//DTD SVG 20010904//EN"
 "http://www.w3.org/TR/2001/REC-SVG-20010904/DTD/svg10.dtd">
<svg version="1.0" xmlns="http://www.w3.org/2000/svg"
 width="300.000000pt" height="300.000000pt" viewBox="0 0 300.000000 300.000000"
 preserveAspectRatio="xMidYMid meet">
<metadata>
Created by potrace 1.14, written by Peter Selinger 2001-2017
</metadata>
<g transform="translate(0.000000,300.000000) scale(0.100000,-0.100000)"
fill="#000000" stroke="none">
<path d="M1370 2734 c-139 -18 -309 -68 -421 -124 -228 -116 -443 -331 -559
-559 -39 -78 -84 -211 -106 -311 -26 -119 -26 -371 0 -490 53 -247 167 -458
341 -633 174 -174 388 -290 635 -343 118 -25 372 -25 490 0 247 53 461 169
635 343 174 175 288 386 341 633 26 119 26 371 0 490 -53 247 -167 458 -341
633 -170 170 -376 284 -615 338 -83 19 -323 33 -400 23z m325 -405 c58 -19 80
-33 131 -83 95 -96 92 -70 93 -741 1 -500 -1 -577 -15 -625 -45 -153 -173
-230 -389 -235 -226 -6 -357 55 -424 195 l-26 55 0 605 0 605 26 55 c34 72 80
117 154 151 77 37 145 47 275 44 77 -2 124 -9 175 -26z"/>
<path d="M1419 2200 c-67 -12 -116 -38 -147 -78 l-27 -35 -3 -541 c-2 -298 0
-565 3 -594 6 -44 13 -60 44 -91 58 -58 174 -81 290 -57 73 15 108 38 138 92
l23 39 0 563 c0 540 -1 565 -20 602 -35 68 -85 94 -200 104 -30 2 -76 0 -101
-4z m28 -442 c-3 -8 -6 -5 -6 6 -1 11 2 17 5 13 3 -3 4 -12 1 -19z m30 -530
c-3 -8 -6 -5 -6 6 -1 11 2 17 5 13 3 -3 4 -12 1 -19z m30 -25 c-3 -10 -5 -2
-5 17 0 19 2 27 5 18 2 -10 2 -26 0 -35z"/>
</g>
</svg>
