<?xml version="1.0" encoding="utf-8"?>
<!-- Generator: $$$/GeneralStr/196=Adobe Illustrator 27.6.0, SVG Export Plug-In . SVG Version: 6.00 Build 0)  -->
<svg version="1.1"
	 id="svg2" xmlns:svg="http://www.w3.org/2000/svg" xmlns:sodipodi="http://sodipodi.sourceforge.net/DTD/sodipodi-0.dtd" xmlns:inkscape="http://www.inkscape.org/namespaces/inkscape"
	 xmlns="http://www.w3.org/2000/svg" xmlns:xlink="http://www.w3.org/1999/xlink" x="0px" y="0px" viewBox="0 0 394 81.6"
	 style="enable-background:new 0 0 394 81.6;" xml:space="preserve">
<style type="text/css">
	.st0{fill:#FFFFFF;}
</style>
<g>
	<path class="st0" d="M217.4,35.3v-34h-6v22.8c-4.4-7.9-10.6-16-17-22.8h-5.7v34h6V10.5c3.3,3.2,12.8,17,16.5,24.8H217.4z"/>
	<path class="st0" d="M131.4,35.8c7.4,0,12.3-3.5,14-9.4l-5.8-1.9c-1.2,4.3-4.7,5.5-8.3,5.5c-6.5,0-9.5-4.1-9.9-9.6h24.4v-3.7
		c0-10.5-5.8-16.2-14.8-16.2c-10.1,0-15.8,7.1-15.8,17.6C115.2,29,120.9,35.8,131.4,35.8z M130.9,6.2c5.2,0,8.6,3.2,8.6,9.1h-18
		C122.1,10,125.3,6.2,130.9,6.2z"/>
	<path class="st0" d="M158.1,10.5c3.3,3.2,12.8,17,16.5,24.8h6.2v-34h-6v22.8c-4.4-7.9-10.6-16-17-22.8h-5.7v34h6V10.5z"/>
	<path class="st0" d="M89.4,24.1h6.3h0.7l2.3,3.7c4,6.5,5.7,7.6,12,7.6v-5.7c-3.3,0-4.5-1-7.1-5.3l-0.8-1.3c6-1.9,7.9-6.6,7.9-10.9
		c0-6.9-4.8-11-13.1-11H83.4v34h6V24.1z M89.4,6.8h7.5c4.8,0,7.4,2.3,7.4,6.1c0,3.5-2.1,5.8-6.7,5.8h-8.2V6.8z"/>
	<path class="st0" d="M239.8,35.8c7.4,0,12.3-3.5,14-9.4l-5.8-1.9c-1.2,4.3-4.7,5.5-8.3,5.5c-6.5,0-9.5-4.1-9.9-9.6h24.4v-3.7
		c0-10.5-5.8-16.2-14.8-16.2c-10.1,0-15.8,7.1-15.8,17.6C223.6,29,229.3,35.8,239.8,35.8z M239.4,6.2c5.2,0,8.6,3.2,8.6,9.1h-18
		C230.6,10,233.8,6.2,239.4,6.2z"/>
	<path class="st0" d="M286.1,25.3c0-5.6-3.5-9.1-13.1-10.4c-5.4-0.8-7.3-2.1-7.3-4.8c0-2.9,2.4-4.3,6-4.3c4.4,0,6.8,1.9,7.8,5.9
		l5.7-1.6c-1.5-6.1-6-9.6-13.5-9.6c-7.4,0-12.1,3.5-12.1,10c0,4.7,2.4,8.5,12.1,9.9c6.2,0.9,8.3,2.3,8.3,5.3c0,3.2-2.5,4.8-6.8,4.8
		c-5,0-8-2.2-9.5-6.3l-5.6,2.1c1.8,5.8,6.7,9.5,14.6,9.5C280.6,35.9,286.1,32.2,286.1,25.3z"/>
	<polygon class="st0" points="139.7,43.9 151.8,39.9 150.4,35.6 138.3,39.9 	"/>
	<path class="st0" d="M113.6,46.7c-3.8,7.9-7.4,15.8-10.2,24.8H103c-2.8-9-6.4-16.9-10.2-24.8h-5.8l-4.1,34h5.9l2.7-23.4
		c3.2,7.2,6,14.6,8.4,22.3h6.6c2.4-7.8,5.2-15.2,8.4-22.3l2.7,23.4h5.9l-4.1-34H113.6z"/>
	<path class="st0" d="M222.2,57.7c0-6.9-4.8-11-13.1-11H195v34h6V69.6h6.3h0.7l2.3,3.7c4,6.5,5.7,7.6,12,7.6v-5.7
		c-3.3,0-4.5-1-7.1-5.3l-0.8-1.3C220.3,66.7,222.2,62.1,222.2,57.7z M209.1,64.2h-8.2v-12h7.5c4.8,0,7.4,2.3,7.4,6.1
		C215.8,61.9,213.7,64.2,209.1,64.2z"/>
	<polygon class="st0" points="344.4,46.7 338.4,46.7 338.4,80.7 360.9,80.7 360.9,75.1 344.4,75.1 	"/>
	<path class="st0" d="M315.3,46.1c-10.2,0-17,7.2-17,17.5c0,10.7,6.8,17.6,17,17.6c10.2,0,17-6.9,17-17.6
		C332.3,53.3,325.5,46.1,315.3,46.1z M315.3,75.6c-6.4,0-10.8-4.7-10.8-11.9c0-6.9,4.4-11.9,10.8-11.9c6.4,0,10.8,4.9,10.8,11.9
		C326.1,70.9,321.7,75.6,315.3,75.6z"/>
	<path class="st0" d="M243.6,46.1c-10.2,0-17,7.2-17,17.5c0,10.7,6.8,17.6,17,17.6s17-6.9,17-17.6C260.7,53.3,253.8,46.1,243.6,46.1
		z M243.6,75.6c-6.4,0-10.8-4.7-10.8-11.9c0-6.9,4.4-11.9,10.8-11.9c6.4,0,10.8,4.9,10.8,11.9C254.4,70.9,250.1,75.6,243.6,75.6z"/>
	<path class="st0" d="M280.1,46.7h-13.3v34h6V70.5h7.3c10,0,14.3-4.8,14.3-11.9C294.3,51.5,290.1,46.7,280.1,46.7z M280.6,64.8h-7.9
		V52.3h7.9c4.8,0,7.5,2.2,7.5,6.3C288.1,62.7,285.4,64.8,280.6,64.8z"/>
	<polygon class="st0" points="160.5,52.3 172.1,52.3 172.1,80.7 178.1,80.7 178.1,52.3 190.1,52.3 190.1,46.7 160.5,46.7 	"/>
	<path class="st0" d="M394,62.3c0-10.5-5.8-16.2-14.8-16.2c-10.1,0-15.8,7.1-15.8,17.6c0,10.7,5.7,17.6,16.2,17.6
		c7.4,0,12.3-3.5,14-9.4l-5.8-1.9c-1.2,4.3-4.7,5.5-8.3,5.5c-6.5,0-9.5-4.1-9.9-9.6H394V62.3z M369.7,60.8c0.6-5.3,3.9-9.1,9.4-9.1
		c5.2,0,8.6,3.2,8.6,9.1H369.7z"/>
	<path class="st0" d="M143.5,46.1c-10.1,0-15.8,7.1-15.8,17.6c0,10.7,5.7,17.6,16.2,17.6c7.4,0,12.3-3.5,14-9.4l-5.8-1.9
		c-1.2,4.3-4.7,5.5-8.3,5.5c-6.5,0-9.5-4.1-9.9-9.6h24.4v-3.7C158.3,51.8,152.5,46.1,143.5,46.1z M134,60.8c0.6-5.3,3.9-9.1,9.4-9.1
		c5.2,0,8.6,3.2,8.6,9.1H134z"/>
	<path class="st0" d="M28.2,0C18.8,0,9.2,2,0,5v6.7c10.1-3.8,19.7-5.4,28.2-5.4c19.1,0,30.3,8.7,30.3,22.4c0,8.1-3.5,14.8-10,19.3
		c1.4,1.5,2.8,3.2,4,4.7c8.2-5.5,12.5-14.5,12.5-24C64.9,11.4,50.8,0,28.2,0z"/>
	<path class="st0" d="M38.8,61.8c-4.9-7-8.3-9.2-15.2-10.2V58c4.8,0.7,7,3.1,10.2,7.6C42,77.5,46.6,82.4,63.5,81.5v-6.3
		C50.4,76.1,46.1,72.1,38.8,61.8z"/>
	<path class="st0" d="M47.9,54.7C41.8,46.1,35,41.5,23.5,40.9v6.4c8.2,0.3,13.4,3.1,19.3,11.3c7,9.7,10.8,13.1,20.6,12.2v-6.3
		C56.3,65.3,52.8,61.7,47.9,54.7z"/>
	<path class="st0" d="M0,80.6h6.5V26.1c-2,0.6-4.5,1.5-6.5,2.4V80.6z"/>
	<path class="st0" d="M11.6,80.6h6.5V23.1c-2,0.3-4.5,0.7-6.5,1.3V80.6z"/>
	<path class="st0" d="M46.2,29.6c0,4.6-2.3,8.6-6.4,11.1c1.8,0.9,3.6,2.4,5,3.8c5-3.3,7.9-8.9,7.9-15.1c0-10.8-8.5-18-25.3-18
		c-8.8,0-19.3,2-27.4,5.3v6.7c7.5-3.3,18.3-5.8,27.4-5.8C39.6,17.7,46.2,21.7,46.2,29.6z"/>
</g>
</svg>
